<?xml version="1.0" encoding="UTF-8" standalone="no"?>
<svg
   xmlns:dc="http://purl.org/dc/elements/1.1/"
   xmlns:cc="http://creativecommons.org/ns#"
   xmlns:rdf="http://www.w3.org/1999/02/22-rdf-syntax-ns#"
   xmlns:svg="http://www.w3.org/2000/svg"
   xmlns="http://www.w3.org/2000/svg"
   xmlns:xlink="http://www.w3.org/1999/xlink"
   xmlns:sodipodi="http://sodipodi.sourceforge.net/DTD/sodipodi-0.dtd"
   xmlns:inkscape="http://www.inkscape.org/namespaces/inkscape"
   version="1.1"
   id="Layer_1"
   x="0px"
   y="0px"
   viewBox="0 0 1000 310"
   xml:space="preserve"
   sodipodi:docname="Pinsoft_Yatay_Logo_mavi-for animation.svg"
   inkscape:version="1.0 (4035a4f, 2020-05-01)"
   width="1000"
   height="310"><metadata
   id="metadata1408"><rdf:RDF><cc:Work
       rdf:about=""><dc:format>image/svg+xml</dc:format><dc:type
         rdf:resource="http://purl.org/dc/dcmitype/StillImage" /><dc:title></dc:title></cc:Work></rdf:RDF></metadata><defs
   id="defs1406"><linearGradient
   id="linearGradient889"
   inkscape:collect="always"><stop
     id="stop885"
     offset="0"
     style="stop-color:#0000e7;stop-opacity:1;" /><stop
     id="stop887"
     offset="1"
     style="stop-color:#0000e7;stop-opacity:0;" /></linearGradient>
	
	

		
		
			<linearGradient
   id="SVGID_4_"
   gradientUnits="userSpaceOnUse"
   x1="663.81989"
   y1="750.73492"
   x2="753.31952"
   y2="760.82391"
   gradientTransform="matrix(1,0,0,-1,0,950)">
			<stop
   offset="0"
   style="stop-color:#003FFF"
   id="stop906" />
			<stop
   offset="1"
   style="stop-color:#0000BE"
   id="stop908" />
		</linearGradient>
		
		
	
			
				
			
		
	
	

		
		
			<linearGradient
   id="SVGID_2_"
   gradientUnits="userSpaceOnUse"
   x1="158.881"
   y1="720.24683"
   x2="216.9754"
   y2="726.79547"
   gradientTransform="matrix(1,0,0,-1,0,950)">
			<stop
   offset="0"
   style="stop-color:#003FFF"
   id="stop864" />
			<stop
   offset="1"
   style="stop-color:#0000BE"
   id="stop866" />
		</linearGradient>
		
		
	
			
				
			
		
		
		
		
		
		
		
		
	<linearGradient
   gradientUnits="userSpaceOnUse"
   y2="219.02003"
   x2="221.63995"
   y1="219.02003"
   x1="159.5685"
   id="linearGradient891"
   xlink:href="#linearGradient889"
   inkscape:collect="always" /></defs><sodipodi:namedview
   inkscape:document-rotation="0"
   pagecolor="#ffffff"
   bordercolor="#666666"
   borderopacity="1"
   objecttolerance="10"
   gridtolerance="10"
   guidetolerance="10"
   inkscape:pageopacity="0"
   inkscape:pageshadow="2"
   inkscape:window-width="1440"
   inkscape:window-height="855"
   id="namedview1404"
   showgrid="false"
   inkscape:zoom="0.61022095"
   inkscape:cx="435.97745"
   inkscape:cy="341.44669"
   inkscape:window-x="0"
   inkscape:window-y="23"
   inkscape:window-maximized="0"
   inkscape:current-layer="g1825" />
<style
   type="text/css"
   id="style833">
	.st0{fill:#0000E7;}
	.st1{fill:url(#SVGID_1_);}
	.st2{fill:url(#SVGID_2_);}
	.st3{fill:#0000BE;}
	.st4{enable-background:new    ;}
	.st5{fill:url(#SVGID_3_);}
	.st6{fill:url(#SVGID_4_);}
	.st7{fill:#003FFF;}
	.st8{fill:#00A1FF;}
</style>
<g
   inkscape:export-ydpi="500"
   inkscape:export-xdpi="500"
   id="g1825"
   transform="matrix(3.1399201,0,0,3.1399201,-498.34648,-532.71635)"><path
     style="stroke:#0000e7;stroke-opacity:1;stroke-width:0.51879549;stroke-miterlimit:4;stroke-dasharray:none"
     id="path835"
     d="m 249.3,207.2 h 28.3 c 4.2,0 6.3,2.1 6.3,6.3 v 2.4 c 0,4.2 -2.1,6.3 -6.3,6.3 h -22 v 8.7 h -6.3 z m 6.3,8.7 H 276 c 1,0 1.6,-0.3 1.6,-0.8 v -0.8 c 0,-0.5 -0.5,-0.8 -1.6,-0.8 h -20.5 v 2.4 z"
     class="st0" /><path
     style="stroke:#0000e7;stroke-opacity:1;stroke-width:0.51879549;stroke-miterlimit:4;stroke-dasharray:none"
     id="path837"
     d="m 293.3,207.2 v 23.6 H 287 v -23.6 z"
     class="st0" /><path
     style="stroke:#0000e7;stroke-opacity:1;stroke-width:0.51879549;stroke-miterlimit:4;stroke-dasharray:none"
     id="path839"
     d="m 324.8,225.2 v -18.1 h 6.3 V 226 c 0,3.1 -1.6,4.7 -4.7,4.7 -2.1,0 -3.7,-0.5 -4.7,-1.6 l -18.9,-16.5 v 18 h -6.3 v -18.9 c 0,-3.1 1.6,-4.7 4.7,-4.7 2.1,0 3.7,0.5 4.7,1.6 z"
     class="st0" /><path
     style="stroke:#0000e7;stroke-opacity:1;stroke-width:0.51879549;stroke-miterlimit:4;stroke-dasharray:none"
     id="path841"
     d="m 362.6,215.9 c 4.2,0 6.3,2.1 6.3,6.3 v 2.4 c 0,4.2 -2.1,6.3 -6.3,6.3 h -28.3 v -6.3 H 361 c 1,0 1.6,-0.3 1.6,-0.8 V 223 c 0,-0.5 -0.5,-0.8 -1.6,-0.8 h -20.5 c -4.2,0 -6.3,-2.1 -6.3,-6.3 v -2.4 c 0,-4.2 2.1,-6.3 6.3,-6.3 h 28.3 v 6.3 H 342 c -1,0 -1.6,0.3 -1.6,0.8 v 0.8 c 0,0.5 0.5,0.8 1.6,0.8 z"
     class="st0" /><path
     style="stroke:#0000e7;stroke-opacity:1;stroke-width:0.51879549;stroke-miterlimit:4;stroke-dasharray:none"
     id="path843"
     d="m 400.4,207.2 c 4.2,0 6.3,2.1 6.3,6.3 v 11 c 0,4.2 -2.1,6.3 -6.3,6.3 h -22 c -4.2,0 -6.3,-2.1 -6.3,-6.3 v -11 c 0,-4.2 2.1,-6.3 6.3,-6.3 z m -20.5,17.3 h 18.9 c 1,0 1.6,-0.5 1.6,-1.6 V 215 c 0,-1.1 -0.5,-1.6 -1.6,-1.6 h -18.9 c -1,0 -1.6,0.5 -1.6,1.6 v 7.9 c 0,1.1 0.6,1.6 1.6,1.6 z"
     class="st0" /><path
     style="stroke:#0000e7;stroke-opacity:1;stroke-width:0.51879549;stroke-miterlimit:4;stroke-dasharray:none"
     id="path845"
     d="m 416.1,215.9 h 25.2 v 6.3 h -25.2 v 8.7 h -6.3 v -17.3 c 0,-4.2 2.1,-6.3 6.3,-6.3 h 25.2 v 6.3 h -23.6 c -1,0 -1.6,0.5 -1.6,1.6 z"
     class="st0" /><path
     style="stroke:#0000e7;stroke-opacity:1;stroke-width:0.51879549;stroke-miterlimit:4;stroke-dasharray:none"
     id="path847"
     d="m 457,213.5 h -12.6 v -6.3 h 31.5 v 6.3 h -12.6 v 17.3 H 457 Z"
     class="st0" /><g
     style="stroke:#ffffff;stroke-opacity:1;stroke-width:0.51879549;stroke-miterlimit:4;stroke-dasharray:none;fill:#0000e7;fill-opacity:1"
     id="g867"><g
       style="stroke:#ffffff;stroke-opacity:1;stroke-width:0.51879549;stroke-miterlimit:4;stroke-dasharray:none;fill:#0000e7;fill-opacity:1"
       id="g860">
				
					<linearGradient
   style="fill-opacity:1;fill:url(#linearGradient891)"
   gradientTransform="matrix(1,0,0,-1,0,950)"
   y2="757.32831"
   x2="195.4698"
   y1="727.84869"
   x1="165.1145"
   gradientUnits="userSpaceOnUse"
   id="SVGID_1_">
					<stop
   id="stop853"
   style="stop-color:#0000BE;fill-opacity:1;fill:url(#linearGradient891)"
   offset="0" />
					<stop
   id="stop855"
   style="stop-color:#003FFF;fill-opacity:1;fill:url(#linearGradient891)"
   offset="1" />
				</linearGradient>
				<path
   style="fill:#0000e7;stroke:#ffffff;stroke-opacity:1;stroke-width:0.51879549;stroke-miterlimit:4;stroke-dasharray:none;fill-opacity:1"
   id="path858"
   d="m 198.1,219 c 9.3,-1.6 17,-6.9 21.9,-14.2 -0.1,-0.4 -0.2,-0.7 -0.4,-1.1 -1.1,-3 -2.8,-5.7 -4.8,-8.1 -2,-2.4 -4.6,-4.4 -7.4,-5.9 -2.8,-1.5 -5.9,-2.5 -9,-2.9 -0.8,-0.1 -1.6,-0.2 -2.4,-0.2 h -0.6 -0.6 -0.7 -3 -26.1 c -2.2,0 -3.8,2.2 -2.9,4.3 l 5.3,13.5 c 0.5,1.2 1.6,2 2.9,2 h 20.8 3 0.7 0.2 0.1 c 0.2,0 0.4,0 0.6,0.1 0.8,0.1 1.5,0.3 2.2,0.7 1.4,0.7 2.5,2 3,3.5 0.3,0.7 0.4,1.5 0.4,2.3 0,0.8 -0.1,1.6 -0.4,2.3 -0.5,1.4 -1.7,2.7 -3.1,3.4 -0.7,0.4 -1.4,0.6 -2.2,0.7 h -0.1 -0.1 c -0.1,0 -0.2,0 -0.3,0 h -0.1 -0.1 -0.2 -0.7 -3 -1.3 c 2.8,0.2 5.6,0.1 8.4,-0.4 z"
   class="st1" />
			</g><path
       class="st2"
       d="m 220,204.8 c -4.9,7.3 -12.6,12.6 -21.9,14.2 -2.8,0.5 -5.6,0.6 -8.4,0.3 h -10.5 -8.6 c -1.2,0 -2.3,0.8 -2.6,2 l -7.6,26.3 c 4.5,-5.1 11,-8.5 18.3,-8.8 0.7,-0.1 1.4,-0.2 2.2,-0.2 L 191,239 h 3 0.7 0.2 0.3 0.6 c 0.4,0 0.8,0 1.2,-0.1 l 0.6,-0.1 0.6,-0.1 c 2.5,-0.3 5,-1 7.4,-2 v 0 c 0.6,-0.2 1.1,-0.5 1.6,-0.8 5.6,-2.9 10.1,-7.9 12.3,-13.9 1.1,-3 1.7,-6.1 1.7,-9.3 0,-2.5 -0.4,-5.2 -1.2,-7.9 z"
       id="path869"
       style="fill:#0000e7;stroke:#ffffff;stroke-opacity:1;stroke-width:0.51879549;stroke-miterlimit:4;stroke-dasharray:none;fill-opacity:1" /><path
       style="stroke:#ffffff;stroke-opacity:1;stroke-width:0.51879549;stroke-miterlimit:4;stroke-dasharray:none;fill:#0000e7;fill-opacity:1"
       class="st3"
       d="m 160.4,247.6 -0.3,1.2 c -0.6,2 1.8,3.5 3.3,2.1 l 11.3,-10 c 1.1,-1 2.5,-1.7 4,-2 -7.3,0.3 -13.8,3.6 -18.3,8.7 z"
       id="path871" /></g></g>


</svg>
